<svg width="136" height="70" viewBox="0 0 136 70" fill="none" xmlns="http://www.w3.org/2000/svg">
<g clip-path="url(#clip0_1_4363)">
<path fill-rule="evenodd" clip-rule="evenodd" d="M28.4814 52.4267H26.2742H21.1444C21.1444 52.4267 25.5166 42.7904 26.4575 39.2734V34.7513H28.2315C28.2315 34.7513 29.4407 32.0058 29.9245 29.9062V27.8873H31.4037C31.4037 27.8873 34.1414 13.2631 34.3268 6.11275L33.3969 5.20344L33.5532 4.23818L34.8989 3.77593L35.5815 0.130371L36.2642 3.77593L37.6098 4.23818L37.7662 5.20344L36.8363 6.11275C37.0143 12.9669 38.4863 21.0858 39.7594 27.8873H41.2385V29.9062C41.4418 30.7879 41.7729 31.7838 42.0888 32.6422C41.6911 31.7746 40.9895 30.8027 40.5785 30.2747L40.0652 29.6148L39.552 30.2747C38.9552 31.0421 37.7445 32.7449 37.7445 33.7051C37.7445 34.2042 37.8969 34.6936 38.2984 35.0135C38.3198 35.0305 38.3421 35.0472 38.3653 35.0632V41.6281H37.1391V29.2098C37.217 29.1657 37.2901 29.1166 37.3554 29.0645C37.8726 28.6523 38.0571 28.0141 38.0571 27.3736C38.0571 26.0538 36.2734 23.5512 35.4496 22.4922L34.9461 21.8448L35.3842 6.45653C35.2594 12.6118 34.3824 19.2526 33.7306 23.4277C32.8691 24.6471 31.8159 26.3595 31.8159 27.3736C31.8159 28.0141 32.0004 28.6523 32.5175 29.0645C32.5829 29.1166 32.656 29.1657 32.7339 29.2098V39.4866H28.2588L23.7941 50.4423C23.7941 50.4423 27.9019 42.2145 29.4645 41.3647C30.3317 40.8932 31.6931 40.7935 32.7339 40.7983V43.3592C30.7787 44.4456 28.5275 46.897 28.482 52.427L28.4814 52.4267ZM42.3123 33.2351C42.6543 34.1218 42.9316 34.7513 42.9316 34.7513H44.7055V35.8675H41.7654V35.0632C41.7886 35.0472 41.8109 35.0305 41.8323 35.0135C42.2338 34.6936 42.3863 34.2042 42.3863 33.7051C42.3863 33.5628 42.3595 33.4045 42.3123 33.2351Z" fill="white"/>
<path fill-rule="evenodd" clip-rule="evenodd" d="M59.6244 24.8411C57.7021 23.1829 54.8702 21.6141 53.0773 19.8184C50.4056 22.4942 45.4268 24.6664 44.589 27.3809C44.2252 28.5593 44.1982 29.5841 44.3521 30.4294C45.7079 31.2676 49.2659 32.9954 56.0899 33.4544H58.1405H58.8936L59.6244 24.8411ZM48.0512 34.6652C47.2774 34.606 46.6307 34.4953 46.2393 34.314V36.5193H41.1149V34.6405C41.1149 34.6405 41.7354 34.5893 41.7354 33.7056C41.7354 32.8219 40.0652 30.6756 40.0652 30.6756C40.0652 30.6756 38.3947 32.8219 38.3947 33.7056C38.3947 34.5893 39.0155 34.6405 39.0155 34.6405V36.5193V42.2799H36.4882V28.7564C36.4882 28.7564 37.4062 28.6808 37.4062 27.3735C37.4062 26.0665 34.936 22.8924 34.936 22.8924C34.936 22.8924 33.1894 25.137 32.6337 26.6282C32.7252 27.1723 32.9859 27.8253 33.695 28.0114C34.9714 28.3456 36.3067 28.4245 36.3067 28.4245L34.7161 29.6243V37.9774L33.9027 38.9046V29.6317C33.9027 29.6317 33.6771 29.5407 33.3838 29.3567V52.4269H35.3592V44.2304H38.696L36.5697 52.4269H39.9959V44.2304H43.3328L41.2064 52.4269H44.6327V44.2304H47.9695L45.8431 52.4269H49.2694V44.2304H52.6063L50.4799 52.4269H53.9062V44.2304H57.243L55.1166 52.4269H58.5405L58.9916 44.4914L58.0148 43.8148L58.3673 39.6591L41.1149 42.2799V38.1087H58.4986L58.6109 36.7859H48.0509V34.6649L48.0512 34.6652Z" fill="white"/>
<path fill-rule="evenodd" clip-rule="evenodd" d="M70.6964 20.0376C71.1565 14.3365 72.5149 7.69395 73.6056 5.58752L75.6651 0.0676805L77.7246 5.58752C77.8078 5.74824 77.8925 5.93516 77.9784 6.14649H75.4238L78.1029 6.46706C78.3038 7.00847 78.5092 7.67312 78.7122 8.42914H75.2276L78.8251 8.85983C78.9722 9.43518 79.1175 10.0567 79.2587 10.7121H75.1129L79.366 11.2211C79.4837 11.7919 79.5981 12.3857 79.7072 12.9947H74.6089L79.8162 13.618C79.9093 14.1627 79.9978 14.7175 80.081 15.2777H73.6695L80.1931 16.0584C80.2623 16.5578 80.3268 17.0597 80.3859 17.5603H72.6516L80.4909 18.4988C80.5384 18.9506 80.5809 19.3998 80.618 19.8432H71.5386L80.6998 20.9398C80.7613 21.8916 80.7952 22.8075 80.7952 23.6605V24.3969C80.2632 24.3556 79.7318 24.3112 79.2005 24.2636L79.2183 23.5204H78.1784V24.1677C77.8459 24.1353 77.5133 24.1014 77.1808 24.0659L77.1938 23.5204H76.154V23.9528L75.5528 23.885L75.6398 24.6937C75.713 25.3717 75.8996 26.0325 76.1537 26.6757V52.4268H74.4734L75.1691 23.5204H74.1292V52.4268H73.1892L72.6504 44.0591L72.7749 38.8806L72.9298 38.2607L72.8112 37.3668L72.9996 29.5328L73.0183 29.5161C73.4285 29.1465 73.3854 28.4387 73.3357 27.9374C73.284 27.415 73.1863 26.8832 73.076 26.3644L73.1444 23.5201H72.3529C72.3179 23.4075 72.2807 23.2986 72.2406 23.1989C72.1978 23.092 72.166 22.9391 72.1375 22.8262C72.0783 22.5911 72.0198 22.356 71.9532 22.1229C71.8023 21.5931 71.5912 20.9788 71.2403 20.5519C71.0765 20.3531 70.8973 20.1849 70.6964 20.0373V20.0376ZM72.1045 32.0345L71.8653 30.2296C71.9452 30.1945 72.0251 30.157 72.1045 30.1174V32.0345ZM77.0723 28.5526C77.3858 29.1084 77.7172 29.6489 78.0313 30.1742L78.1778 30.4192V52.4268H76.4975L77.0723 28.5526ZM79.0501 30.4909H80.7946V32.7268H79.6673V36.4534H80.7946V37.3147H83.4972V39.0711L80.7946 41.3809V52.4268H78.522L79.0501 30.4909ZM87.7773 37.3147H88.3711V36.4534H89.9405V52.4268H88.3711V41.4562L87.7773 40.9487V39.9072L88.3711 40.4147V38.5363H87.7773V37.3147ZM90.6693 36.4534H91.965V52.4268H90.2847L90.6693 36.4534ZM92.6937 36.4534H93.9894V52.4268H92.3091L92.6937 36.4534ZM94.7182 36.4534H96.0139V52.4268H94.3336L94.7182 36.4534ZM96.7426 36.4534H98.6306V52.4268H96.358L96.7426 36.4534ZM88.3714 32.7268V30.4909H89.9408V32.7268H88.3714ZM90.8128 30.4909H91.965V32.7268H90.759L90.8128 30.4909ZM92.8373 30.4909H93.9894V32.7268H92.7835L92.8373 30.4909ZM94.8617 30.4909H96.0139V32.7268H94.8079L94.8617 30.4909ZM96.8861 30.4909H98.6306V32.7268H96.8321L96.8859 30.4909H96.8861ZM88.3714 24.7996V23.6608C88.3714 17.5356 90.107 8.16512 91.4417 5.58722L93.5012 0.0673828L95.5607 5.58722C95.728 5.91016 95.9013 6.33996 96.0769 6.85638H93.5047L96.1824 7.17694C96.3655 7.74902 96.55 8.41068 96.7313 9.13932H93.3086L96.8338 9.56138C96.9735 10.1468 97.1105 10.7707 97.2428 11.4223H93.1939L97.3417 11.9187C97.4547 12.4974 97.5634 13.095 97.6669 13.7052H92.6898L97.7676 14.313C97.8568 14.8648 97.9409 15.425 98.0193 15.9881H91.7507L98.1219 16.7507C98.1872 17.2579 98.2479 17.766 98.3025 18.2708H90.7329L98.3956 19.1881C98.439 19.6486 98.4773 20.1046 98.5094 20.5537H89.6199L98.5757 21.6258C98.6119 22.3325 98.6312 23.015 98.6312 23.6611V24.9056C98.0942 24.9095 97.5575 24.9118 97.0208 24.9127L97.0544 23.5207H96.0145V24.913C95.6751 24.9127 95.336 24.9118 94.9966 24.9104L95.0302 23.5204H93.9903V24.9044C93.6512 24.9017 93.3122 24.8988 92.9728 24.8949L93.0058 23.5204H91.9659V24.8818C91.6271 24.8767 91.288 24.8708 90.9492 24.8645L90.9816 23.5204H89.9417V24.8428C89.4187 24.8303 88.8953 24.816 88.3723 24.7996H88.3714ZM80.7946 38.536V40.3391L82.904 38.536H80.7946Z" fill="white"/>
<path fill-rule="evenodd" clip-rule="evenodd" d="M59.1923 52.4267L59.5403 46.3041L61.3267 50.8676L61.4693 47.0122L63.3226 48.5353L65.0811 48.0117L66.3168 51.2483V46.4411L68.4182 51.8671V45.2097L63.7107 46.1095L59.6618 44.1632L58.6948 43.4935L60.4833 22.4116C60.4833 22.4116 57.8942 18.3222 57.197 15.8285C56.6846 13.9959 56.6026 11.3555 56.5952 10.0843C56.2911 9.77443 55.955 9.3988 55.9782 9.1455C56.0171 8.71511 56.1345 8.04957 56.1345 8.04957C56.1345 8.04957 55.0991 7.91265 55.0209 7.44297C54.9428 6.97328 55.0209 6.48396 55.0209 6.48396C55.0209 6.48396 55.4311 6.12321 56.3699 5.98689C56.1051 5.73776 55.8971 5.40797 56.0186 5.03174C56.2882 4.19923 56.9625 3.43398 57.0296 2.75892C57.0296 2.75892 57.6588 3.47893 57.5913 3.88432C57.5913 3.88432 57.9283 3.05151 57.8835 2.21899C57.8835 2.21899 59.1195 3.63668 58.715 5.21212C58.6122 5.61334 58.4564 5.89164 58.282 6.08392C59.2318 6.32561 59.8666 6.77773 59.8666 6.77773V7.5019C59.8666 7.5019 59.6125 8.03022 58.7334 8.03022H58.2255L58.3818 8.51955C58.3818 8.51955 58.4796 8.75439 58.3233 9.02823C58.1673 9.30176 58.0199 9.992 58.0196 9.99409L59.1893 15.1306L60.3843 16.6268C60.3843 16.6268 61.5793 16.228 62.0774 17.0257C62.5752 17.8237 63.5711 18.2225 63.5711 18.2225C63.5711 18.2225 63.1761 17.8915 63.0638 17.2165C62.9514 16.5414 63.2884 15.0041 63.2884 15.0041L60.8173 13.6167L63.4754 14.554L63.8873 13.9918L62.5021 11.4793L64.3741 13.5792L64.8983 13.3917L65.0106 10.8421L65.46 13.242L66.0591 13.4295L67.332 11.3671L66.5459 13.5795L67.1447 14.2168L68.9418 13.1295L67.4069 14.6668L67.6315 15.3794L69.8777 15.6794L67.7064 15.9794L67.8188 17.2168C67.8188 17.2168 67.6315 17.9293 67.3694 18.229C67.3694 18.229 66.5795 18.8666 66.2547 19.0291C65.9298 19.1916 65.7471 19.4357 65.1991 19.4357C64.6507 19.4357 63.8406 18.5841 63.8406 18.5841C63.8406 18.5841 63.3348 19.5381 63.7815 20.3513C64.2281 21.1647 64.2962 21.5174 64.7836 21.8428C65.271 22.1681 65.9325 22.4383 65.9325 23.1706C65.9325 23.9025 66.4175 24.743 66.4175 24.743C66.4175 24.743 68.6916 22.5878 68.6916 21.8963C68.6916 21.2049 68.9555 20.595 69.1181 20.473C69.2806 20.351 69.5618 20.0753 69.5618 20.0753C69.5618 20.0575 70.5618 20.7501 70.7395 20.9662C71.2638 21.6037 71.4885 23.0661 71.6379 23.4411C71.7877 23.8161 73.1346 28.5359 72.5845 29.0321C72.0344 29.528 71.1541 29.8036 71.1541 29.8036C71.1541 29.8036 67.028 31.0087 66.8021 30.9117C66.5765 30.8147 66.3521 30.4733 66.3521 30.4733L64.0296 30.8977L64.6451 42.3565L65.3753 31.4701L66.3828 43.5828L66.9421 32.1532L67.9926 32.0794L69.3728 43.7971L69.3199 32.4854L71.6053 37.5989L71.6454 33.5108L72.2698 38.2228L71.7562 40.2786L72.5384 52.4264H59.1935L59.1923 52.4267ZM63.7951 15.8095C63.7951 15.8095 64.1892 15.5351 64.9039 15.5931C65.6187 15.6511 66.3007 15.4618 66.6021 15.7532C66.9034 16.0446 67.0071 16.403 67.0071 16.403C67.0071 16.403 66.6538 16.2259 66.2796 16.2363C65.9055 16.2467 65.5729 16.2259 65.4689 16.0384C65.3649 15.8509 65.3159 15.6464 65.2433 15.7711C65.1705 15.8961 65.2656 16.9117 65.2656 16.9117C65.2656 16.9117 65.6258 17.0099 65.5117 17.0828C65.3973 17.1557 65.0543 17.2703 64.9815 17.1557C64.9087 17.0411 64.9699 15.7884 64.9699 15.7884C64.9699 15.7884 64.9075 15.8925 64.7931 16.1527C64.6787 16.4128 64.2629 16.392 64.0032 16.2777C63.7434 16.1631 63.6706 16.2048 63.6706 16.2048L63.7954 15.8092L63.7951 15.8095Z" fill="white"/>
<path fill-rule="evenodd" clip-rule="evenodd" d="M87.1268 31.0365V33.3787C94.1657 33.3787 98.5605 33.3787 105.6 33.3787V31.0365L108.579 30.4091V33.3787H112.409V35.8021H109.745H108.579H105.6H105.272H104.947H104.928H87.7984H87.1271H84.1478H82.9816H80.3179V33.3787H84.1478V30.4091L87.1271 31.0365H87.1268ZM87.1268 36.9989V52.4271H84.1475V36.3715L87.1268 36.9989ZM84.1475 29.8397H82.9813H78.5892C77.607 28.197 76.4821 26.4417 76.2859 24.624C81.5857 25.2229 87.7458 25.4949 96.3738 25.5649C105.002 25.4949 111.14 25.2229 116.44 24.624C116.244 26.4417 115.119 28.197 114.136 29.8397H109.744H108.578H105.599H105.271H104.947H104.927H87.7975H87.1262H84.1469H84.1475ZM108.579 36.3715V52.4271H105.599V36.9989L108.579 36.3715Z" fill="white"/>
<path d="M6.17121 63.2935H7.75713C7.75713 61.3081 6.76593 60.5139 4.06987 60.5139C0.858388 60.5139 0.0654297 61.639 0.0654297 63.5053C0.0654297 64.6966 0.898036 65.9276 2.57647 66.007L5.47076 66.1261C6.39588 66.1658 6.47518 66.232 6.47518 67.0526C6.47518 68.2704 6.29015 68.4557 4.05665 68.4557C1.73064 68.4557 1.65135 68.3763 1.65135 67.0526H0.0654297C0.0654297 69.1175 0.911252 70.0441 4.05665 70.0441C7.10955 70.0441 8.0611 69.0381 8.0611 67.0526C8.0611 65.4113 7.13598 64.6039 5.55006 64.5378L2.65576 64.4186C1.83637 64.3789 1.65135 64.0877 1.65135 63.5053C1.65135 62.2743 1.78351 62.1023 4.06987 62.1023C6.0787 62.1023 6.17121 62.1817 6.17121 63.2935ZM12.1713 69.9117V67.4762L13.5325 66.0202L17.1669 69.9117H19.2022L14.5501 64.9216L18.5414 60.6463H16.5061L12.1713 65.2922V60.6463H10.5853V69.9117H12.1713ZM20.8013 60.6463L24.3432 65.8084V69.9117H25.9291V65.8084L29.471 60.6463H27.5414L25.1361 64.1539L22.7308 60.6463H20.8013ZM36.2904 69.9117H43.1627V68.3233H37.8763V60.6463H36.2904V69.9117ZM47.2729 69.9117V60.6463H45.687V69.9117H47.2729ZM51.3831 69.9117V62.8567L56.1144 69.9117H58.1232V60.6463H56.5373V67.7012L51.806 60.6463H49.7972V69.9117H51.3831ZM60.6475 69.9117H67.5198V68.3233H62.2334V66.0732H66.1982V64.4848H62.2334V62.2346H67.5198V60.6463H60.6475V69.9117ZM76.0309 69.9117L76.7445 68.0586H80.8943L81.608 69.9117H83.2997L79.7313 60.6463H77.9075L74.3392 69.9117H76.0309ZM77.3525 66.4703L78.8194 62.6714L80.2864 66.4703H77.3525ZM89.8019 66.0732H92.4319C92.3658 68.138 91.9429 68.4557 89.8019 68.4557C87.2644 68.4557 86.749 67.9262 86.749 65.279C86.749 62.6185 87.2777 62.1023 89.8019 62.1023C91.0706 62.1023 91.705 62.2611 92.1676 62.6714L93.2249 61.5066C92.4451 60.7786 91.3085 60.5139 89.8019 60.5139C86.5244 60.5139 85.1631 61.8111 85.1631 65.279C85.1631 68.6807 86.4847 70.0441 89.8019 70.0441C93.4363 70.0441 94.15 68.4027 94.0178 64.4848H89.8019V66.0732ZM96.5553 69.9117H103.428V68.3233H98.1412V66.0732H102.106V64.4848H98.1412V62.2346H103.428V60.6463H96.5553V69.9117ZM107.538 69.9117V62.8567L112.269 69.9117H114.278V60.6463H112.692V67.7012L107.961 60.6463H105.952V69.9117H107.538ZM125.353 68.4822L124.031 67.6086C123.608 68.2439 122.974 68.4557 121.441 68.4557C118.903 68.4557 118.388 67.9262 118.388 65.279C118.388 62.6185 118.917 62.1023 121.441 62.1023C122.71 62.1023 123.344 62.2611 123.807 62.6714L124.864 61.5066C124.084 60.7786 122.948 60.5139 121.441 60.5139C118.163 60.5139 116.802 61.8111 116.802 65.279C116.802 68.6807 118.124 70.0441 121.441 70.0441C123.278 70.0441 124.6 69.647 125.353 68.4822ZM126.82 60.6463L130.362 65.8084V69.9117H131.948V65.8084L135.49 60.6463H133.56L131.155 64.1539L128.749 60.6463H126.82Z" fill="white"/>
</g>
<defs>
<clipPath id="clip0_1_4363">
<rect width="135.52" height="70" fill="white"/>
</clipPath>
</defs>
</svg>
